<?xml version="1.0" encoding="UTF-8"?>
<svg id="Capa_2" data-name="Capa 2" xmlns="http://www.w3.org/2000/svg" viewBox="0 0 1042.69 131.55">
  <g id="svg1">
    <g id="layer1">
      <path id="text2" d="m28.3,110.7c-8.8,0-15.72-1.39-20.75-4.16C2.52,103.87,0,100.06,0,95.08c0-5.09,1.64-9.77,4.91-14.05,3.27-4.4,7.48-8.15,12.64-11.28,5.28-3.24,10.75-5.73,16.41-7.46,5.79-1.85,11.13-2.78,16.04-2.78,2.52,0,3.77.35,3.77,1.04,0,1.04-1.32,1.56-3.96,1.56-4.65,0-9.75,1.04-15.28,3.12-5.41,2.08-10.25,4.97-14.53,8.68-3.4,2.78-5.97,5.61-7.73,8.5-1.64,2.78-2.45,5.38-2.45,7.81,0,3.59,1.82,6.59,5.47,9.02,3.65,2.31,9.12,3.47,16.41,3.47,4.28,0,8.62-.29,13.02-.87,4.4-.69,8.36-1.45,11.89-2.26,3.65-.81,6.41-1.45,8.3-1.91,4.65-1.39,9.31-3.06,13.96-5.03,4.78-1.97,9.06-4.17,12.83-6.59,3.77-2.54,6.54-5.09,8.3-7.63,1.01-1.39,1.7-2.72,2.08-3.99.5-1.27.75-2.49.75-3.64,0-3.24-1.57-5.96-4.72-8.15-3.14-2.31-7.17-4.4-12.07-6.25-4.9-1.85-10.12-3.59-15.66-5.21-5.53-1.74-10.75-3.53-15.66-5.38-4.9-1.85-8.93-3.93-12.07-6.25-3.14-2.43-4.72-5.32-4.72-8.68,0-3.82,1.51-7.23,4.53-10.24,3.14-3.12,7.11-5.84,11.89-8.15,4.91-2.43,10.12-4.4,15.66-5.9,5.53-1.62,10.82-2.83,15.85-3.64,5.03-.81,9.18-1.21,12.45-1.21,13.83,0,20.75,3.18,20.75,9.54,0,2.54-1.13,5.49-3.4,8.85-1.01,1.74-2.45,3.41-4.34,5.03-1.89,1.5-3.33,2.26-4.34,2.26-.75,0-1.13-.4-1.13-1.21,0-.35.69-1.04,2.08-2.08,1.38-1.16,2.77-2.54,4.15-4.16,1.38-1.62,2.08-3.24,2.08-4.86,0-2.43-1.51-4.28-4.53-5.55-2.89-1.27-6.73-1.91-11.51-1.91-2.26,0-5.53.35-9.81,1.04-4.28.58-8.93,1.56-13.96,2.95-5.03,1.39-9.87,3.24-14.53,5.55-8.68,4.4-13.02,8.15-13.02,11.28,0,2.31,2.45,4.51,7.36,6.59,3.65,1.5,7.86,3.07,12.64,4.68,4.78,1.62,9.62,3.35,14.53,5.21,4.9,1.85,9.43,3.93,13.58,6.25,4.28,2.31,7.67,4.92,10.19,7.81,2.64,2.78,3.96,5.96,3.96,9.54,0,4.86-2.89,9.83-8.68,14.92-4.53,3.93-9.81,7.58-15.85,10.93-5.91,3.35-12.2,6.25-18.87,8.68-6.54,2.43-13.02,4.28-19.43,5.55-6.41,1.39-12.39,2.08-17.92,2.08h0Zm140.92-4.16c-2.14,0-4.15-.46-6.04-1.39-1.76-.93-3.08-2.66-3.96-5.21-.38-1.04-.57-2.49-.57-4.34,0-2.54.38-5.38,1.13-8.5.75-3.12,1.57-5.78,2.45-7.98-.63.23-1.82,1.27-3.58,3.12-1.64,1.74-3.71,3.88-6.23,6.42-2.39,2.43-5.09,4.92-8.11,7.46-2.89,2.43-5.91,4.45-9.06,6.07-3.14,1.62-6.23,2.43-9.24,2.43-2.01,0-4.15-.52-6.41-1.56-2.26-1.16-4.09-2.6-5.47-4.34-1.89-2.31-2.83-4.68-2.83-7.11,0-3.12,1.13-6.36,3.4-9.72,2.39-3.35,5.41-6.59,9.06-9.72,3.77-3.24,7.73-6.13,11.89-8.68,4.28-2.66,8.3-4.86,12.07-6.59,3.9-1.85,7.04-3.07,9.43-3.64,2.52-.69,5.35-1.04,8.49-1.04,1.76,0,3.58.23,5.47.69,1.89.35,3.46.98,4.72,1.91,1.01.46,1.82,1.1,2.45,1.91.63.81.94,1.68.94,2.6s-.44,1.22-1.32.87c-1.01-1.39-2.39-2.26-4.15-2.6-1.64-.46-3.33-.69-5.09-.69-5.03,0-10.56,1.5-16.6,4.51-6.04,3.01-11.44,6.54-16.22,10.58-1.51,1.16-3.58,3.18-6.23,6.07-2.52,2.78-4.84,5.84-6.98,9.2-2.14,3.35-3.21,6.42-3.21,9.2,0,1.5.44,2.83,1.32,3.99.5.81,1.32,1.21,2.45,1.21,1.76,0,4.09-.87,6.98-2.6,3.02-1.74,6.1-3.82,9.24-6.25,3.14-2.54,5.97-4.97,8.49-7.29,2.64-2.31,4.53-3.99,5.66-5.03.63-.58,1.82-1.73,3.58-3.47,1.89-1.85,3.9-3.82,6.04-5.9,2.14-2.08,4.02-3.88,5.66-5.38,1.76-1.5,2.89-2.26,3.4-2.26.63,0,1.63.17,3.02.52,1.51.23,2.77.64,3.77,1.21,1.01.58,1.19,1.33.57,2.26-3.27,4.4-5.91,9.02-7.92,13.88-1.89,4.74-3.02,8.5-3.4,11.28-.12.46-.19.93-.19,1.39v1.21c0,4.63,1.76,6.94,5.28,6.94,1.89,0,4.4-1.04,7.55-3.12,3.14-2.08,6.35-4.57,9.62-7.46,3.27-2.89,6.23-5.67,8.87-8.33,2.77-2.78,4.65-4.86,5.66-6.25.38-.35.75-.52,1.13-.52.5,0,.94.23,1.32.69.38.35.38.81,0,1.39-1.38,2.08-3.4,4.57-6.04,7.46-2.64,2.89-5.6,5.78-8.87,8.68-3.27,2.89-6.48,5.38-9.62,7.46-1.64,1.16-3.71,2.14-6.23,2.95-2.52.93-5.03,1.39-7.55,1.39h0Zm24.9.52c-.88,0-1.13-.4-.75-1.21.38-.69,1.07-2.26,2.08-4.68,1.01-2.54,2.14-5.55,3.4-9.02,1.38-3.47,2.77-7.06,4.15-10.76,1.38-3.7,2.64-7.17,3.77-10.41,1.26-3.24,2.26-5.78,3.02-7.63.25-.69.5-1.68.75-2.95.25-1.39.75-2.6,1.51-3.64.88-1.16,2.33-1.74,4.34-1.74,3.77,0,5.66.81,5.66,2.43,0,.58-.31,1.56-.94,2.95-1.51,3.12-3.14,6.71-4.9,10.76-1.76,4.05-3.33,7.87-4.72,11.45-1.38,3.59-2.45,6.36-3.21,8.33,1.26-1.62,3.27-3.93,6.04-6.94,2.89-3.01,6.1-6.25,9.62-9.72,3.52-3.47,7.17-6.82,10.94-10.06,3.9-3.24,7.48-5.84,10.75-7.81,3.4-2.08,6.29-3.12,8.68-3.12,3.02,0,4.53,1.5,4.53,4.51,0,1.04-.31,2.6-.94,4.68-1.13,2.89-2.58,5.73-4.34,8.5-1.76,2.66-3.33,5.49-4.72,8.5-2.39,5.44-3.77,9.83-4.15,13.19-.12.46-.19.93-.19,1.39v1.21c0,4.63,1.7,6.94,5.09,6.94,1.89,0,4.4-1.04,7.55-3.12,3.14-2.08,6.35-4.57,9.62-7.46,3.4-2.89,6.41-5.67,9.06-8.33,2.64-2.78,4.46-4.86,5.47-6.25.38-.35.75-.52,1.13-.52.5,0,.88.17,1.13.52.38.35.44.81.19,1.39-1.13,1.97-3.08,4.45-5.85,7.46-2.64,2.89-5.6,5.84-8.87,8.85-3.27,2.89-6.48,5.38-9.62,7.46-1.89,1.16-4.21,2.2-6.98,3.12-2.77.93-5.53,1.33-8.3,1.21-3.52-.35-6.04-1.45-7.55-3.3-1.51-1.97-2.26-4.28-2.26-6.94,0-3.12.63-6.42,1.89-9.89,1.38-3.59,2.89-6.94,4.53-10.06,1.64-3.12,2.96-5.49,3.96-7.11,1.01-1.85,1.51-3.3,1.51-4.34,0-.93-.44-1.39-1.32-1.39s-2.2.52-3.96,1.56c-1.76,1.04-4.15,2.83-7.17,5.38-2.77,2.2-5.72,5.09-8.87,8.68-3.14,3.47-6.23,7.06-9.24,10.76-2.89,3.7-5.47,6.88-7.73,9.54-2.14,2.66-3.65,4.22-4.53,4.68-.63.35-2.08.92-4.34,1.73-2.14.81-3.77,1.21-4.91,1.21h0Zm134.7,16.66c-3.27-.46-5.6-1.91-6.98-4.34-1.38-2.43-2.08-5.44-2.08-9.02,0-4.28.63-8.91,1.89-13.88,1.38-4.97,2.96-9.66,4.72-14.05,1.76-4.4,3.14-7.75,4.15-10.06-2.89,3.12-6.23,6.54-10,10.24-3.65,3.7-7.48,7.23-11.51,10.58-4.02,3.35-7.92,6.13-11.7,8.33-3.65,2.08-6.85,3.12-9.62,3.12-2.01,0-4.15-.52-6.41-1.56-2.26-1.16-4.09-2.6-5.47-4.34-1.89-2.31-2.83-4.68-2.83-7.11,0-3.12,1.13-6.36,3.4-9.72,2.39-3.35,5.41-6.59,9.06-9.72,3.77-3.24,7.73-6.13,11.89-8.68,4.28-2.66,8.3-4.86,12.07-6.59,3.9-1.85,7.04-3.07,9.43-3.64,1.26-.23,2.58-.46,3.96-.69,1.38-.23,2.83-.35,4.34-.35,1.89,0,3.77.23,5.66.69,1.89.35,3.46.98,4.72,1.91l.75.52c3.02-6.36,6.35-12.78,10-19.26,3.65-6.59,7.55-12.61,11.7-18.04,4.15-5.44,8.55-9.77,13.21-13.01,4.65-3.35,9.5-5.03,14.53-5.03.63,0,1.26.06,1.89.18.63,0,1.19.06,1.7.18,3.14.58,5.35,1.62,6.6,3.12,1.38,1.39,2.08,3.06,2.08,5.03,0,1.39-.31,2.89-.94,4.51-.5,1.5-1.26,3.01-2.26,4.51-2.77,4.51-6.41,8.96-10.94,13.36-4.4,4.4-9.24,8.68-14.53,12.84-5.28,4.05-10.56,7.98-15.85,11.8-5.16,3.82-9.87,7.4-14.15,10.76-1.89,4.05-3.77,8.79-5.66,14.23-1.89,5.44-3.46,10.06-4.72,13.88-.75,2.78-1.38,5.38-1.89,7.81-.38,2.43-.57,4.68-.57,6.77,0,3.82.75,6.94,2.26,9.37,1.26,1.85,2.83,2.78,4.72,2.78,1.38,0,2.64-.46,3.77-1.39.5-.23.94-.52,1.32-.87.5-.35,1.07-.69,1.7-1.04.75-.35,1.38-.52,1.89-.52.88,0,.94.64.19,1.91-.38.35-.82.75-1.32,1.21-.5.58-1.07,1.16-1.7,1.73-.88.58-2.2,1.04-3.96,1.39-1.76.35-3.52.52-5.28.52-.5,0-1.07-.06-1.7-.18-.5,0-1.01-.06-1.51-.18h0Zm18.11-67.32c5.03-3.12,10.5-7,16.41-11.62,5.91-4.74,11.44-9.77,16.6-15.09,5.16-5.44,9.12-10.58,11.89-15.44,1.64-2.78,2.45-4.97,2.45-6.59,0-1.97-.94-2.95-2.83-2.95-1.76,0-4.09.93-6.98,2.78-8.43,6.01-15.53,13.19-21.32,21.51-5.79,8.21-11.19,17.35-16.22,27.41h0Zm-64.52,44.07c.63.69,1.45,1.04,2.45,1.04,1.89,0,4.09-.75,6.6-2.26,2.64-1.5,4.4-2.66,5.28-3.47,6.41-4.74,12.83-9.83,19.24-15.27,6.54-5.55,12.64-11.1,18.3-16.66.5-1.04.94-2.02,1.32-2.95.38-1.04.82-2.02,1.32-2.95-1.89-.69-4.09-1.04-6.6-1.04-5.03,0-10.56,1.5-16.6,4.51-6.04,3.01-11.44,6.54-16.22,10.58-1.51,1.16-3.58,3.18-6.23,6.07-2.52,2.78-4.84,5.84-6.98,9.2-2.14,3.35-3.21,6.42-3.21,9.2,0,1.5.44,2.83,1.32,3.99h0Zm81.12,6.25c-3.52,0-6.6-.75-9.24-2.26-4.4-2.43-6.6-6.82-6.6-13.19,0-2.66.5-5.73,1.51-9.2.88-2.89,2.45-6.01,4.72-9.37,2.26-3.47,4.9-6.77,7.92-9.89,3.14-3.12,6.54-5.67,10.19-7.63,3.65-1.97,7.29-2.95,10.94-2.95,1.51,0,2.83.17,3.96.52,1.51.46,2.77,1.33,3.77,2.6,1.13,1.16,1.7,2.66,1.7,4.51,0,1.97-.57,3.06-1.7,3.3-1.01.23-1.51,0-1.51-.69v-.69c.12-.23.19-.4.19-.52,0-.93-.31-1.74-.94-2.43-.5-.81-1.51-1.21-3.02-1.21-2.01,0-4.53.98-7.55,2.95-2.89,1.97-5.91,4.63-9.06,7.98-3.02,3.24-5.72,6.82-8.11,10.76-2.26,3.93-3.77,7.87-4.53,11.8-.12.58-.25,1.16-.38,1.73,0,.46,0,.98,0,1.56,0,2.66.63,4.92,1.89,6.77,1.38,1.74,3.52,2.6,6.41,2.6,3.52,0,6.92-1.21,10.19-3.64,3.27-2.54,6.16-5.55,8.68-9.02,2.64-3.47,4.59-6.54,5.85-9.2,1.01-2.08,1.7-3.87,2.08-5.38.38-1.5.57-2.78.57-3.82,0-.93-.13-1.74-.38-2.43-.12-.69-.31-1.27-.57-1.74-.25-.69-.38-1.22-.38-1.56,0-.92.38-1.68,1.13-2.26.88-.58,1.76-.87,2.64-.87.75,0,1.57.23,2.45.69,1.01.23,2.39.4,4.15.52,1.76.12,3.65.18,5.66.18,2.14,0,4.28-.06,6.41-.18,2.26-.12,4.21-.35,5.85-.69.25-.12.63-.18,1.13-.18.88,0,1.32.23,1.32.69s-.44.87-1.32,1.21c-4.4,1.85-8.36,2.83-11.89,2.95-3.4.12-6.35.18-8.87.18.25,2.89-.44,6.01-2.08,9.37-1.64,3.24-3.33,6.13-5.09,8.68-2.14,2.89-4.59,5.84-7.36,8.85-2.77,3.01-5.85,5.55-9.24,7.63-3.4,1.97-7.23,2.95-11.51,2.95h0Zm75.65.18c-2.14,0-4.02-.46-5.66-1.39-1.64-.81-2.77-2.43-3.4-4.86-.38-1.27-.57-2.54-.57-3.82,0-3.47.94-6.82,2.83-10.06,2.01-3.35,4.34-6.42,6.98-9.2,2.64-2.89,4.9-5.32,6.79-7.29,1.01-.93,2.14-2.14,3.4-3.64,1.38-1.5,2.08-3.01,2.08-4.51,0-.93-.5-1.79-1.51-2.6-1.01-.93-2.83-1.56-5.47-1.91-1.51-.23-2.96-.4-4.34-.52-1.26-.23-2.58-.35-3.96-.35-3.52,4.4-6.98,8.85-10.38,13.36-3.27,4.4-6.79,8.73-10.56,13.01-.88.81-1.63,1.21-2.26,1.21-.75,0-1.13-.35-1.13-1.04s.38-1.39,1.13-2.08c6.79-7.63,12.64-15.79,17.54-24.46h-2.83c-1.26-.12-2.26-.24-3.02-.35-.88-.23-1.57-.58-2.08-1.04-.5-.46-.75-.93-.75-1.39,0-.69.31-1.1.94-1.21,1.64-.46,3.4-1.16,5.28-2.08,1.89-.93,3.65-2.14,5.28-3.64,1.76-1.62,3.4-3.3,4.9-5.03,1.51-1.85,2.7-3.24,3.58-4.16.88-.58,1.82-.87,2.83-.87.63,0,1.19.17,1.7.52.63.35.94.87.94,1.56,0,.81-.38,1.85-1.13,3.12-1.13,1.62-2.39,3.41-3.77,5.38-1.26,1.97-2.45,3.76-3.58,5.38,2.26.12,4.53.24,6.79.35,2.26.12,4.59.18,6.98.18h3.58c1.26-.12,2.52-.18,3.77-.18,3.77,0,5.66.87,5.66,2.6,0,1.16-.69,2.6-2.08,4.34-1.26,1.62-2.83,3.41-4.72,5.38-4.28,4.51-7.92,9.25-10.94,14.23-3.02,4.97-5.03,8.79-6.04,11.45-1.01,2.78-1.51,4.86-1.51,6.25,0,2.78,1.19,4.16,3.58,4.16,2.14,0,4.72-.98,7.73-2.95,3.14-1.97,6.35-4.34,9.62-7.11,3.27-2.89,6.23-5.67,8.87-8.33,2.64-2.78,4.53-4.86,5.66-6.25.25-.35.63-.52,1.13-.52s.94.23,1.32.69c.38.35.38.81,0,1.39-1.38,1.97-3.4,4.45-6.04,7.46-2.64,2.89-5.6,5.78-8.87,8.68-3.27,2.89-6.48,5.38-9.62,7.46-1.64,1.16-3.9,2.2-6.79,3.12-2.77,1.04-5.41,1.56-7.92,1.56h0Zm138.47,8.5c-7.17,0-13.14-1.27-17.92-3.82-4.78-2.54-7.61-6.48-8.49-11.8v-1.04c-1.01,1.27-2.2,2.78-3.58,4.51-1.26,1.74-2.64,3.18-4.15,4.34-1.38,1.27-2.83,1.91-4.34,1.91-.25,0-1.01-.12-2.26-.35-1.13-.23-2.26-.52-3.4-.87-1.01-.35-1.57-.75-1.7-1.21-.38-2.2.19-5.32,1.7-9.37,1.64-4.16,3.71-8.73,6.23-13.71,2.64-4.97,5.35-9.95,8.11-14.92,2.89-4.97,5.53-9.43,7.92-13.36,2.39-4.05,4.09-7.11,5.09-9.2.75-1.27,1.26-2.31,1.51-3.12.25-.93.38-1.62.38-2.08,0-.69-.13-1.27-.38-1.73.25-1.39,1.13-3.24,2.64-5.55,1.64-2.31,3.65-4.63,6.04-6.94,2.39-2.31,4.97-4.22,7.73-5.73,2.77-1.62,5.35-2.43,7.73-2.43.75,0,1.89.23,3.4.69,1.64.35,3.14.92,4.53,1.73,1.51.81,2.45,1.97,2.83,3.47.12.35.19.69.19,1.04s-.13.52-.38.52-.63-.06-1.13-.18c-.38-.23-.69-.35-.94-.35-2.89,0-6.04,1.27-9.43,3.82-3.4,2.54-6.92,5.96-10.56,10.24-3.52,4.28-6.98,8.96-10.38,14.05-3.4,5.09-6.67,10.24-9.81,15.44-3.02,5.09-5.66,9.83-7.92,14.23-2.26,4.28-4.02,7.75-5.28,10.41-1.01,2.54-1.51,4.34-1.51,5.38,0,1.62.69,2.43,2.08,2.43,1.76,0,3.65-1.1,5.66-3.3,1.38-1.5,2.64-2.89,3.77-4.16,1.26-1.39,2.33-1.97,3.21-1.73,1.76,0,2.96.46,3.58,1.39.63.81,1.01,1.79,1.13,2.95.12,1.16.25,2.2.38,3.12.88,3.59,2.89,6.54,6.04,8.85,3.27,2.43,7.8,3.64,13.58,3.64,6.16,0,11.7-.93,16.6-2.78,4.91-1.85,8.8-4.4,11.7-7.63,2.89-3.35,4.34-7.11,4.34-11.28,0-2.89-.75-5.9-2.26-9.02-1.51-3.24-3.9-6.48-7.17-9.72-2.77-3.01-5.85-5.84-9.24-8.5-3.4-2.66-6.35-5.09-8.87-7.29-2.39-2.31-3.58-4.28-3.58-5.9,0-1.39,1.01-2.6,3.02-3.64,2.01-1.16,3.65-1.74,4.91-1.74,2.89,0,6.54-.52,10.94-1.56,4.53-1.04,9.18-2.43,13.96-4.16,4.78-1.85,9.12-3.87,13.02-6.07,4.02-2.2,6.98-4.4,8.87-6.59,1.13-1.27,2.01-2.6,2.64-3.99.75-1.5,1.13-2.95,1.13-4.34,0-2.2-1.07-4.16-3.21-5.9-2.01-1.85-5.47-3.18-10.38-3.99-1.38-.35-3.02-.58-4.9-.69-1.89-.12-3.9-.18-6.04-.18-6.41,0-13.83.58-22.26,1.73-8.43,1.04-16.98,2.6-25.66,4.68-8.68,2.08-16.79,4.68-24.34,7.81s-13.77,6.77-18.68,10.93c-4.78,4.05-7.48,8.56-8.11,13.53-.25,2.89.5,5.09,2.26,6.59,1.76,1.5,3.84,2.66,6.23,3.47,2.39.69,4.28,1.39,5.66,2.08,1.13.46,1.7.93,1.7,1.39,0,.58-.69.87-2.08.87-1.51,0-3.4-.35-5.66-1.04-2.26-.69-4.53-1.74-6.79-3.12-2.14-1.5-3.9-3.3-5.28-5.38-1.38-2.08-1.89-4.51-1.51-7.29,0-.23-.06-.64-.19-1.21-.12-.69-.19-1.22-.19-1.56.38-3.7,2.08-7.23,5.09-10.58,3.14-3.35,6.79-6.42,10.94-9.2,4.28-2.78,8.24-5.09,11.89-6.94,4.02-1.97,8.87-3.76,14.53-5.38,5.66-1.74,11.7-3.24,18.11-4.51,6.54-1.27,13.14-2.26,19.81-2.95,6.67-.81,12.89-1.21,18.68-1.21,6.16,0,11.57.46,16.22,1.39,6.29,1.27,11.13,3.53,14.53,6.77,3.4,3.24,5.09,6.82,5.09,10.76-.12,4.28-1.57,8.04-4.34,11.28-2.64,3.12-6.1,5.78-10.38,7.98-4.28,2.2-8.93,4.05-13.96,5.55-4.9,1.39-9.75,2.43-14.53,3.12-4.78.69-8.93,1.1-12.45,1.21,5.28,2.89,10.5,6.13,15.66,9.72,5.28,3.47,9.62,7.29,13.02,11.45,3.52,4.16,5.28,8.73,5.28,13.71,0,2.78-.69,5.67-2.08,8.68-1.26,2.89-3.33,6.01-6.23,9.37-3.77,4.28-9.06,7.69-15.85,10.24-6.67,2.54-13.83,3.82-21.51,3.82v.02Zm77.54-7.98c-5.66,0-10.56-1.21-14.71-3.64-4.15-2.43-6.23-6.13-6.23-11.1,0-2.66.88-5.9,2.64-9.72,1.26-2.66,3.58-5.73,6.98-9.2,3.4-3.47,7.36-6.82,11.89-10.06,4.53-3.35,9.12-6.07,13.77-8.15,4.65-2.2,8.87-3.3,12.64-3.3,1.38,0,2.64.17,3.77.52,2.14.69,3.58,1.79,4.34,3.3.88,1.5,1.32,3.07,1.32,4.68,0,1.5-.25,2.95-.75,4.34-.5,1.39-1.13,2.6-1.89,3.64-2.26,3.12-5.53,5.9-9.81,8.33-4.15,2.43-8.43,4.34-12.83,5.73-4.28,1.39-7.8,2.2-10.56,2.43h-.38c-1.64,0-2.45-.46-2.45-1.39,0-.58.5-.87,1.51-.87,3.02-.23,6.79-1.5,11.32-3.82,4.65-2.43,8.74-4.92,12.26-7.46,1.51-1.16,3.27-2.78,5.28-4.86,2.14-2.08,3.21-4.11,3.21-6.07,0-2.08-1.07-3.12-3.21-3.12-1.13,0-2.33.23-3.58.69-1.13.46-2.08.81-2.83,1.04-3.65,1.62-7.67,4.16-12.07,7.63-4.4,3.35-8.43,7.17-12.07,11.45-3.52,4.16-5.97,8.39-7.36,12.67-.38.93-.63,1.85-.75,2.78-.12.81-.19,1.62-.19,2.43,0,2.78.94,4.74,2.83,5.9,2.01,1.16,4.4,1.73,7.17,1.73,4.15,0,8.43-.81,12.83-2.43,4.4-1.74,8.68-3.93,12.83-6.59,4.15-2.66,7.92-5.49,11.32-8.5,3.52-3.12,6.48-6.13,8.87-9.02.38-.46.82-.69,1.32-.69.5-.12.82-.06.94.18.5.12.75.47.75,1.04,0,.46-.13.93-.38,1.39-3.52,4.51-7.8,8.91-12.83,13.19-4.9,4.28-10.38,7.87-16.41,10.76-5.91,2.78-12.07,4.16-18.49,4.16h0Zm35.09-.35c-.88,0-1.13-.4-.75-1.21.38-.69,1.07-2.26,2.08-4.68,1.01-2.54,2.14-5.55,3.4-9.02,1.38-3.47,2.77-7.06,4.15-10.76,1.38-3.7,2.64-7.17,3.77-10.41,1.26-3.24,2.26-5.78,3.02-7.63.25-.69.5-1.68.75-2.95.25-1.39.75-2.6,1.51-3.64.88-1.16,2.33-1.74,4.34-1.74,3.77,0,5.66.81,5.66,2.43,0,.58-.31,1.56-.94,2.95-1.51,3.12-3.14,6.71-4.9,10.76-1.76,4.05-3.33,7.87-4.72,11.45-1.38,3.59-2.45,6.36-3.21,8.33,1.26-1.62,3.27-3.93,6.04-6.94,2.89-3.01,6.1-6.25,9.62-9.72,3.52-3.47,7.17-6.82,10.94-10.06,3.9-3.24,7.48-5.84,10.75-7.81,3.4-2.08,6.29-3.12,8.68-3.12,3.02,0,4.53,1.5,4.53,4.51,0,1.04-.31,2.6-.94,4.68-1.13,2.89-2.58,5.73-4.34,8.5-1.76,2.66-3.33,5.49-4.72,8.5-2.39,5.44-3.77,9.83-4.15,13.19-.12.46-.19.93-.19,1.39v1.21c0,4.63,1.7,6.94,5.09,6.94,1.89,0,4.4-1.04,7.55-3.12,3.14-2.08,6.35-4.57,9.62-7.46,3.4-2.89,6.41-5.67,9.06-8.33,2.64-2.78,4.46-4.86,5.47-6.25.38-.35.75-.52,1.13-.52.5,0,.88.17,1.13.52.38.35.44.81.19,1.39-1.13,1.97-3.08,4.45-5.85,7.46-2.64,2.89-5.6,5.84-8.87,8.85-3.27,2.89-6.48,5.38-9.62,7.46-1.89,1.16-4.21,2.2-6.98,3.12-2.77.93-5.53,1.33-8.3,1.21-3.52-.35-6.04-1.45-7.55-3.3-1.51-1.97-2.26-4.28-2.26-6.94,0-3.12.63-6.42,1.89-9.89,1.38-3.59,2.89-6.94,4.53-10.06,1.64-3.12,2.96-5.49,3.96-7.11,1.01-1.85,1.51-3.3,1.51-4.34,0-.93-.44-1.39-1.32-1.39s-2.2.52-3.96,1.56c-1.76,1.04-4.15,2.83-7.17,5.38-2.77,2.2-5.72,5.09-8.87,8.68-3.14,3.47-6.23,7.06-9.24,10.76-2.89,3.7-5.47,6.88-7.73,9.54-2.14,2.66-3.65,4.22-4.53,4.68-.63.35-2.08.92-4.34,1.73-2.14.81-3.77,1.21-4.91,1.21h0Zm136.77-.52c-2.14,0-4.15-.46-6.04-1.39-1.76-.93-3.08-2.66-3.96-5.21-.38-1.04-.57-2.49-.57-4.34,0-2.54.38-5.38,1.13-8.5.75-3.12,1.57-5.78,2.45-7.98-.63.23-1.82,1.27-3.58,3.12-1.64,1.74-3.71,3.88-6.23,6.42-2.39,2.43-5.09,4.92-8.11,7.46-2.89,2.43-5.91,4.45-9.06,6.07-3.14,1.62-6.23,2.43-9.24,2.43-2.01,0-4.15-.52-6.41-1.56-2.26-1.16-4.09-2.6-5.47-4.34-1.89-2.31-2.83-4.68-2.83-7.11,0-3.12,1.13-6.36,3.4-9.72,2.39-3.35,5.41-6.59,9.06-9.72,3.77-3.24,7.73-6.13,11.89-8.68,4.28-2.66,8.3-4.86,12.07-6.59,3.9-1.85,7.04-3.07,9.43-3.64,2.52-.69,5.35-1.04,8.49-1.04,1.76,0,3.58.23,5.47.69,1.89.35,3.46.98,4.72,1.91,1.01.46,1.82,1.1,2.45,1.91.63.81.94,1.68.94,2.6,0,.93-.44,1.22-1.32.87-1.01-1.39-2.39-2.26-4.15-2.6-1.64-.46-3.33-.69-5.09-.69-5.03,0-10.56,1.5-16.6,4.51-6.04,3.01-11.44,6.54-16.22,10.58-1.51,1.16-3.58,3.18-6.23,6.07-2.52,2.78-4.84,5.84-6.98,9.2-2.14,3.35-3.21,6.42-3.21,9.2,0,1.5.44,2.83,1.32,3.99.5.81,1.32,1.21,2.45,1.21,1.76,0,4.09-.87,6.98-2.6,3.02-1.74,6.1-3.82,9.24-6.25,3.14-2.54,5.97-4.97,8.49-7.29,2.64-2.31,4.53-3.99,5.66-5.03.63-.58,1.82-1.73,3.58-3.47,1.89-1.85,3.9-3.82,6.04-5.9,2.14-2.08,4.02-3.87,5.66-5.38,1.76-1.5,2.89-2.26,3.4-2.26.63,0,1.63.17,3.02.52,1.51.23,2.77.64,3.77,1.21,1.01.58,1.2,1.33.57,2.26-3.27,4.4-5.91,9.02-7.92,13.88-1.89,4.74-3.02,8.5-3.4,11.28-.12.46-.19.93-.19,1.39v1.21c0,4.63,1.76,6.94,5.28,6.94,1.89,0,4.4-1.04,7.55-3.12,3.14-2.08,6.35-4.57,9.62-7.46,3.27-2.89,6.23-5.67,8.87-8.33,2.77-2.78,4.65-4.86,5.66-6.25.38-.35.75-.52,1.13-.52.5,0,.94.23,1.32.69.38.35.38.81,0,1.39-1.38,2.08-3.4,4.57-6.04,7.46s-5.6,5.78-8.87,8.68c-3.27,2.89-6.48,5.38-9.62,7.46-1.64,1.16-3.71,2.14-6.23,2.95-2.52.93-5.03,1.39-7.55,1.39h0Zm57.73.35c-2.14,0-4.02-.46-5.66-1.39-1.64-.81-2.77-2.43-3.4-4.86-.38-1.27-.57-2.55-.57-3.82,0-3.47.94-6.82,2.83-10.06,2.01-3.35,4.34-6.42,6.98-9.2,2.64-2.89,4.91-5.32,6.79-7.29,1.01-.93,2.14-2.14,3.4-3.64,1.38-1.5,2.08-3.01,2.08-4.51,0-.93-.5-1.79-1.51-2.6-1.01-.93-2.83-1.56-5.47-1.91-1.51-.23-2.96-.4-4.34-.52-1.26-.23-2.58-.35-3.96-.35-3.52,4.4-6.98,8.85-10.38,13.36-3.27,4.4-6.79,8.73-10.56,13.01-.88.81-1.63,1.21-2.26,1.21-.75,0-1.13-.35-1.13-1.04,0-.69.38-1.39,1.13-2.08,6.79-7.63,12.64-15.79,17.54-24.46h-2.83c-1.26-.12-2.26-.24-3.02-.35-.88-.23-1.57-.58-2.08-1.04s-.75-.93-.75-1.39c0-.69.31-1.1.94-1.21,1.64-.46,3.4-1.16,5.28-2.08,1.89-.93,3.65-2.14,5.28-3.64,1.76-1.62,3.4-3.3,4.91-5.03,1.51-1.85,2.7-3.24,3.58-4.16.88-.58,1.82-.87,2.83-.87.63,0,1.19.17,1.7.52.63.35.94.87.94,1.56,0,.81-.38,1.85-1.13,3.12-1.13,1.62-2.39,3.41-3.77,5.38-1.26,1.97-2.45,3.76-3.58,5.38,2.26.12,4.53.24,6.79.35,2.26.12,4.59.18,6.98.18h3.58c1.26-.12,2.52-.18,3.77-.18,3.77,0,5.66.87,5.66,2.6,0,1.16-.69,2.6-2.08,4.34-1.26,1.62-2.83,3.41-4.72,5.38-4.28,4.51-7.92,9.25-10.94,14.23-3.02,4.97-5.03,8.79-6.04,11.45-1.01,2.78-1.51,4.86-1.51,6.25,0,2.78,1.19,4.16,3.58,4.16,2.14,0,4.72-.98,7.73-2.95,3.14-1.97,6.35-4.34,9.62-7.11,3.27-2.89,6.23-5.67,8.87-8.33,2.64-2.78,4.53-4.86,5.66-6.25.25-.35.63-.52,1.13-.52s.94.23,1.32.69c.38.35.38.81,0,1.39-1.38,1.97-3.4,4.45-6.04,7.46-2.64,2.89-5.6,5.78-8.87,8.68-3.27,2.89-6.48,5.38-9.62,7.46-1.64,1.16-3.9,2.2-6.79,3.12-2.77,1.04-5.41,1.56-7.92,1.56h0Zm64.14-62.46c-1.64,0-3.33-.12-5.09-.35-1.76-.35-2.64-1.45-2.64-3.3,0-.35.82-1.16,2.45-2.43,1.76-1.27,3.52-2.54,5.28-3.82,1.89-1.39,3.02-2.2,3.4-2.43,2.14-1.62,3.46-2.43,3.96-2.43.63,0,.63.75,0,2.26s-.94,2.83-.94,3.99c0,.58-.38,1.56-1.13,2.95-.75,1.39-1.64,2.66-2.64,3.82-1.01,1.16-1.89,1.73-2.64,1.73h0Zm-20.56,62.12c-2.26,0-4.34-.46-6.23-1.39-1.76-.93-3.08-2.66-3.96-5.21-.12-.35-.25-.69-.38-1.04v-1.21c0-2.31.57-5.21,1.7-8.68,1.13-3.47,2.52-6.82,4.15-10.06-.75.93-1.64,2.08-2.64,3.47-1.01,1.27-2.45,2.95-4.34,5.03-.5.46-1.07.69-1.7.69-.88,0-1.32-.46-1.32-1.39,0-.69.25-1.27.75-1.73,3.27-3.82,6.16-7.23,8.68-10.24,2.64-3.01,4.59-5.55,5.85-7.63,0-.12-.06-.18-.19-.18v-.35c0-.35.19-.87.57-1.56,1.01-2.78,2.01-5.09,3.02-6.94,1.13-1.97,2.33-3.06,3.58-3.3h.75c.25-.12.5-.18.75-.18,1.38,0,2.64.29,3.77.87,1.13.58,1.7,1.45,1.7,2.6,0,1.04-.44,2.31-1.32,3.82-.75,1.5-1.76,3.35-3.02,5.55-2.77,5.32-5.28,10.18-7.55,14.57-2.14,4.28-3.33,7.81-3.58,10.58-.12.46-.19.93-.19,1.39v1.21c0,4.63,1.63,6.94,4.9,6.94,2.01,0,4.59-.98,7.73-2.95,3.14-2.08,6.35-4.57,9.62-7.46,3.27-3.01,6.23-5.84,8.87-8.5,2.77-2.78,4.65-4.86,5.66-6.25.38-.35.75-.52,1.13-.52.5,0,.88.17,1.13.52.38.35.44.81.19,1.39-1.13,1.97-3.08,4.45-5.85,7.46-2.64,2.89-5.66,5.84-9.06,8.85-3.27,2.89-6.48,5.38-9.62,7.46-1.64,1.16-3.71,2.14-6.23,2.95-2.39.93-4.84,1.39-7.36,1.39v.02Zm99.04,24.98c-4.65,0-9.12-1.56-13.39-4.68-4.15-3.01-7.99-7.06-11.51-12.15-3.52-4.97-6.54-10.41-9.06-16.31-2.39-6.01-4.15-11.86-5.28-17.52-4.28,5.55-7.99,10.64-11.13,15.27-3.02,4.63-5.22,7.29-6.6,7.98-.63.35-2.08.92-4.34,1.73-2.26.81-3.96,1.21-5.09,1.21-.88,0-1.13-.4-.75-1.21.25-.46.88-1.91,1.89-4.34,1.01-2.54,2.2-5.67,3.58-9.37,1.38-3.7,2.83-7.58,4.34-11.62,1.64-4.05,3.21-7.87,4.72-11.45-1.26,1.27-2.7,2.89-4.34,4.86-1.64,1.85-3.52,4.22-5.66,7.11-.38.58-1.01.87-1.89.87s-1.32-.35-1.32-1.04.44-1.5,1.32-2.43c1.76-1.97,3.65-4.22,5.66-6.77,2.01-2.54,3.96-5.03,5.85-7.46,1.89-2.43,3.4-4.4,4.53-5.9-1.89-.93-2.83-2.14-2.83-3.64,0-.93.38-1.62,1.13-2.08.88-.58,1.76-.58,2.64,0,.5.23.94.35,1.32.35,2.14-5.21,4.84-10.82,8.11-16.83,3.27-6.13,7.04-11.91,11.32-17.35,4.28-5.55,8.87-10.06,13.77-13.53,5.03-3.47,10.31-5.21,15.85-5.21.63,0,1.26.06,1.89.18.76,0,1.45.06,2.08.18.76.12,1.45.35,2.08.69.76.35,1.45.64,2.08.87,2.89,1.5,4.34,3.7,4.34,6.59,0,2.08-.63,4.4-1.89,6.94-1.26,2.43-2.83,4.86-4.72,7.29-1.76,2.43-3.52,4.63-5.28,6.59-1.76,1.97-3.14,3.47-4.15,4.51-6.16,5.78-12.83,11.05-20,15.79-7.04,4.74-13.21,8.1-18.49,10.06-2.01,3.93-3.9,7.98-5.66,12.15-1.76,4.05-3.27,7.81-4.53,11.28-1.13,3.35-2.01,5.96-2.64,7.81,2.14-2.43,4.15-4.86,6.04-7.29,2.01-2.54,4.02-5.03,6.04-7.46,0-.46-.07-.93-.2-1.39,0-.46,0-.93,0-1.39,0-.69,0-1.33,0-1.91.13-.69.26-1.33.38-1.91.13-.69.45-1.39.94-2.08.5-.69,1.01-1.04,1.51-1.04.76,0,1.2.69,1.32,2.08.13.35.26.75.38,1.21.13.46.26.93.38,1.39,1.64-1.74,3.65-3.88,6.04-6.42,2.52-2.54,5.09-4.97,7.73-7.29,2.64-2.31,5.03-3.93,7.17-4.86,1.76-.81,3.52-1.21,5.28-1.21s3.21.4,4.34,1.21c1.13.69,1.7,1.56,1.7,2.6,0,1.62-1.32,3.01-3.96,4.16-2.01.81-4.72,1.97-8.11,3.47-3.27,1.5-6.67,3.3-10.19,5.38-3.52,2.08-6.54,4.34-9.06,6.77,1.89,6.13,3.71,11.39,5.47,15.79,1.89,4.4,4.09,8.62,6.6,12.67,2.64,3.93,6.1,8.39,10.38,13.36,2.89,3.01,5.85,5.44,8.87,7.29,3.02,1.85,5.72,2.78,8.11,2.78,2.14,0,3.59-.46,4.34-1.39.88-.81,1.32-1.85,1.32-3.12,0-1.5-.44-3.18-1.32-5.03-.76-1.74-1.57-3.18-2.45-4.34-.63-.69-.94-1.33-.94-1.91,0-.35.25-.52.76-.52,1.13,0,2.33.46,3.58,1.39.63.69,1.45,2.02,2.45,3.99,1.13,2.08,1.7,3.88,1.7,5.38,0,2.31-.88,4.22-2.64,5.73-1.76,1.62-3.77,2.78-6.04,3.47-2.26.69-4.21,1.04-5.85,1.04v-.02Zm-36.98-77.73c5.41-2.2,10.88-5.21,16.41-9.02,5.53-3.82,10.69-8.33,15.47-13.53.63-.69,1.7-1.97,3.21-3.82,1.51-1.97,3.14-4.17,4.91-6.59,1.89-2.43,3.46-4.86,4.72-7.29,1.26-2.43,1.89-4.45,1.89-6.07,0-1.16-.38-1.97-1.13-2.43-.38-.35-.94-.52-1.7-.52-2.01,0-4.34.98-6.98,2.95-8.43,6.01-15.47,12.78-21.13,20.3-5.53,7.4-10.75,16.08-15.66,26.03h0Z"/>
    </g>
  </g>
</svg>